PathFileType	4	(X/Y/Z)	Formatted/subject02/trials/walk2/markers.trc
DataRate	CameraRate	NumFrames	NumMarkers	Units	OrigDataRate	OrigDataStartFrame	OrigNumFrames
200.00000000000426	200.00000000000426	4	64	m	200.00000000000426	117	235
Frame#	Time	CLAV			C7			RACR			RASH			RPSH			RLEL			RMEL			RUA1			RUA2			RUA3			RFAsuperior			RFAradius			RFAulna			RASI			RPSI			RCAL			RTOE			RMT5			RTH1			RTH2			RTH3			RTB1			RTB2			RTB3			RLFC			RMFC			RLMAL			RMMAL			RHJC			RKJC			REJC			RAJC			RSJC			LACR			LASH			LPSH			LLEL			LMEL			LUA1			LUA2			LUA3			LFAsuperior			LFAradius			LFAulna			LASI			LPSI			LCAL			LTOE			LMT5			LTH1			LTH2			LTH3			LTB1			LTB2			LTB3			LLFC			LMFC			LLMAL			LMMAL			LHJC			LKJC			LEJC			LAJC			LSJC			
		X1	Y1	Z1	X2	Y2	Z2	X3	Y3	Z3	X4	Y4	Z4	X5	Y5	Z5	X6	Y6	Z6	X7	Y7	Z7	X8	Y8	Z8	X9	Y9	Z9	X10	Y10	Z10	X11	Y11	Z11	X12	Y12	Z12	X13	Y13	Z13	X14	Y14	Z14	X15	Y15	Z15	X16	Y16	Z16	X17	Y17	Z17	X18	Y18	Z18	X19	Y19	Z19	X20	Y20	Z20	X21	Y21	Z21	X22	Y22	Z22	X23	Y23	Z23	X24	Y24	Z24	X25	Y25	Z25	X26	Y26	Z26	X27	Y27	Z27	X28	Y28	Z28	X29	Y29	Z29	X30	Y30	Z30	X31	Y31	Z31	X32	Y32	Z32	X33	Y33	Z33	X34	Y34	Z34	X35	Y35	Z35	X36	Y36	Z36	X37	Y37	Z37	X38	Y38	Z38	X39	Y39	Z39	X40	Y40	Z40	X41	Y41	Z41	X42	Y42	Z42	X43	Y43	Z43	X44	Y44	Z44	X45	Y45	Z45	X46	Y46	Z46	X47	Y47	Z47	X48	Y48	Z48	X49	Y49	Z49	X50	Y50	Z50	X51	Y51	Z51	X52	Y52	Z52	X53	Y53	Z53	X54	Y54	Z54	X55	Y55	Z55	X56	Y56	Z56	X57	Y57	Z57	X58	Y58	Z58	X59	Y59	Z59	X60	Y60	Z60	X61	Y61	Z61	X62	Y62	Z62	X63	Y63	Z63	X64	Y64	Z64	

118	3.665	1.683055115292693	1.449041788232066	-0.4556219128469335	1.560565671474724	1.543453872635965	-0.4851613487608218	1.62666346627322	1.500770855815096	-0.3143897402910828	1.677174325864893	1.447270351021738	-0.287087486241096	1.579388087815754	1.473635045711029	-0.2866285538414544	1.558767671094288	1.15635593929194	-0.140785220227273	1.533018657405844	1.140173407149405	-0.2085916192705723	1.623182949540386	1.393210285895637	-0.2299676551778129	1.629666778564618	1.299479120679897	-0.2292698778156686	1.566840112859804	1.28667821303805	-0.1882492235005803	1.647217115268447	1.105379585070267	-0.187114190300034	1.7971915613195	1.008385235238799	-0.1549737246844495	1.752831107041648	0.9750616773643983	-0.1051250494371208	1.633874407581695	1.04165154654328	-0.3391969358676323	1.463138115590156	1.061533719719373	-0.4495177081285457	1.175358208628868	0.09890444734022227	-0.4242409211775263	1.398707286551692	0.02992409227444411	-0.4355334738787635	1.32493068854278	0.01574270504963216	-0.3460898067991442	1.544706095809966	0.8655166027275113	-0.2895160843332503	1.549565783541253	0.7469506517721165	-0.3024060111662047	1.438150863697798	0.6733624051660941	-0.3335060898541859	1.402730837772021	0.3652180547700623	-0.4111460757009382	1.359345325743113	0.310554869558281	-0.3433841579266908	1.340009434586967	0.2123767405994319	-0.4115355142435102	1.424759024480096	0.5322298221268661	-0.3447441074782082	1.428035008588564	0.5348740903988488	-0.460737931026994	1.252549195455951	0.09203321402935483	-0.3590605897120099	1.267170780191103	0.09004439970864608	-0.4627479333664676	1.566491734503956	0.9309462461206881	-0.3897251091317315	1.427217482297592	0.5333415529749396	-0.4042916464018302	1.551230613150137	1.139855899661224	-0.1727413721925223	1.243435142098514	0.08300964896883795	-0.4200415775389156	1.631366362650774	1.459620892248936	-0.2868724993584839	1.624712898056693	1.496688415783455	-0.6615418303471671	1.674891558274323	1.44575406966012	-0.6863771419796882	1.569282421181253	1.474227939924555	-0.6858814949880752	1.497810064836538	1.143339195475927	-0.7281785391384257	1.474136797311902	1.144858178576456	-0.6553886190254943	1.595772094908915	1.398182674788235	-0.7242325618797096	1.602238379422549	1.325380940201247	-0.7109606752296226	1.508568971184406	1.308101928287085	-0.6996513463990216	1.537063524985213	1.057411263157463	-0.6706224590433436	1.576074972107398	0.8706843960155418	-0.7150933586580126	1.509423208601253	0.8678468464635873	-0.7451923356109946	1.666548286237144	1.026997009058977	-0.5991136695087969	1.473383104836534	1.062197708670874	-0.5314101877767232	1.866658758345509	0.06133231132029032	-0.5494975714095485	2.092625195892594	0.1190360288921143	-0.5303193236999171	2.037517741503141	0.07293882281525607	-0.6199039469028756	1.643754740095454	0.8247862429557785	-0.6458459811586392	1.741339909356437	0.7342330289053118	-0.6268234354864919	1.718548806216569	0.6047046492135379	-0.6098732066091589	1.864371890134402	0.4141008767167926	-0.5531116730361073	1.868140235853951	0.3260894548094569	-0.6108564430563276	1.923833116221416	0.2223231659549168	-0.5516252757775384	1.759373014751773	0.5382258263175452	-0.6088180986331322	1.76425283734668	0.5399237249364451	-0.492862952995855	1.931759836404391	0.09767663185225622	-0.6097378679910045	1.946886523336774	0.1037009266752473	-0.5062791681585475	1.585139883871416	0.9218298553254183	-0.5490100440297746	1.762938897778185	0.5394321585909339	-0.5492444450626978	1.492627213479842	1.137150592867927	-0.6942539573699762	1.932939832507133	0.08344697458419803	-0.5490806669792538	1.629083595060204	1.458104610887319	-0.686162155097076	
119	3.67	1.689699105442809	1.44837191837415	-0.4562729509124211	1.567181316218116	1.542715653510915	-0.4859130380643314	1.633237526186166	1.500165205164668	-0.3150922631811607	1.683760800711493	1.446702234552431	-0.2877395022492664	1.585963647130331	1.473027235507865	-0.2873306343868627	1.565684278551741	1.155605748927374	-0.1416340355051531	1.54011456077683	1.139372711962199	-0.2094961887828799	1.629784532571444	1.392602622602171	-0.2306646797184888	1.636466694579888	1.298885449586192	-0.2299586644575188	1.573580084966125	1.285947986433504	-0.1890729258811322	1.654271191955317	1.104601090046969	-0.1877048379941826	1.804156735544962	1.007620941666951	-0.1551100141633622	1.759660919380681	0.9743225838830929	-0.1053652501189693	1.640353014281555	1.040587300938421	-0.3395733232519831	1.469848683195061	1.060751915260091	-0.4502011516473474	1.176303271981831	0.1008698807659634	-0.4243442959492899	1.398949082449559	0.02956710212421016	-0.4350857381066772	1.324847326645386	0.01627130947438426	-0.345774935722027	1.55056150722415	0.8649185359014472	-0.2901540332584052	1.554818224096353	0.7462996376510047	-0.3027670758684467	1.443104400251562	0.6732476133718567	-0.3340584901440068	1.405801174263183	0.3651772958548372	-0.4111989980302382	1.36180607754962	0.3109927061955121	-0.3434457274038936	1.341821634864795	0.21285810107706	-0.4114725632064447	1.428982219129452	0.5321650927957233	-0.3450278466116602	1.432639419970011	0.5345338731413267	-0.4610162300374417	1.253247498195259	0.09333226632572716	-0.3589971150329659	1.268097049395639	0.09104116110602595	-0.46264581508611	1.573018903003351	0.9300063276218863	-0.3904373603008355	1.431658213516309	0.5331048492029404	-0.4045778231068741	1.558250618955218	1.139091730593547	-0.1736071820842412	1.244203353425043	0.08427730748672119	-0.4199838573393729	1.637947724116398	1.459034181250004	-0.2875479680991234	1.631408590187037	1.49586742402521	-0.6622424161894453	1.681616634009521	1.444938253834244	-0.6870289088681545	1.575995708141866	1.473369254866113	-0.6865873315767583	1.504433010109864	1.142514114329302	-0.7286197693810088	1.480769646883178	1.14409015093987	-0.6558278417763377	1.602469679803601	1.397331736776363	-0.7248621496266126	1.608916511694295	1.324537287737565	-0.7115409290650732	1.515243551887174	1.307293330819846	-0.7002075376130171	1.543659473826418	1.05660938201525	-0.6710089832650287	1.582590514700885	0.8698363171465335	-0.7153561717634976	1.515934041348777	0.8670049054846987	-0.7454452951773811	1.673542870059975	1.026387423491063	-0.5994499154950121	1.480258783914005	1.061559169642402	-0.5320715190112293	1.872095811680395	0.06057392637811973	-0.5480760269394268	2.098387982897671	0.1170533174783277	-0.5290948064501672	2.043009164480686	0.07100086511492421	-0.6185349917912604	1.650490205517838	0.8238765824982375	-0.6463517955692639	1.748171715294049	0.7334472196290239	-0.6272347859359143	1.725500237238532	0.6039545733440336	-0.6098565113440264	1.871087118841217	0.4131925367755731	-0.5526705635262325	1.874513599742881	0.3250035637781826	-0.6101652028467577	1.929878480180543	0.2212130880591177	-0.5506695057955423	1.766371972644419	0.5375070623520763	-0.6086763940241828	1.771459515286362	0.539554909902392	-0.4927358292579326	1.937335031256571	0.09637378136110764	-0.6084294580085098	1.952543941010288	0.1026412214821216	-0.5049972598537771	1.591983196626013	0.9211692335439262	-0.5497007078641959	1.770095157274354	0.5388883432093101	-0.5491032745555984	1.499252768325898	1.136350401759721	-0.6946902580227708	1.938501195391286	0.08231374927799728	-0.5477324471234455	1.635803557414426	1.457270200531818	-0.6868373747180114	
120	3.675	1.696373844565993	1.447767183459304	-0.4569372344373194	1.573815275207155	1.542021235017247	-0.4866938243639664	1.639831825005693	1.499636279076492	-0.3158165838546055	1.690374321144169	1.446221744468498	-0.2884047688335689	1.592562602488126	1.472493387549454	-0.2880518379791631	1.572488231469195	1.154934692222979	-0.1425725576107084	1.547124021059032	1.138667296157406	-0.2105035701101979	1.636370164308051	1.392070244816739	-0.2313906000282487	1.643227331556959	1.298365703119871	-0.2306860523269212	1.580260177595546	1.285301274624259	-0.1899649832034279	1.66121071968533	1.10385901025788	-0.188344052435872	1.810939028089265	1.006813381000416	-0.1552256677824063	1.766265471101653	0.9735594449295727	-0.1056106611923579	1.646954312607959	1.039548590961966	-0.3399545124546176	1.476653000864167	1.059996217960108	-0.4508428020705973	1.177338814015654	0.1029838378316237	-0.4244266213486046	1.399200085241396	0.02920414227897682	-0.4346615905592843	1.3247886819867	0.01684175864705946	-0.3454742468683614	1.556554086394806	0.864354909135051	-0.2907982843613945	1.560232912333359	0.7456867452652043	-0.3031264889360542	1.448240336247564	0.6731450989862418	-0.3346082575248135	1.409030769841501	0.3651597987999628	-0.4112467264742922	1.364419383950485	0.3114722451820844	-0.3435007686069613	1.343743994108602	0.2133961498606982	-0.4114053843696719	1.433418325131085	0.5321130841117498	-0.3453002713659587	1.437457660362018	0.5341957651179293	-0.4612814661294144	1.254027458691402	0.09472689740913964	-0.358926557057255	1.269089068174724	0.09212975527137912	-0.4625374354879258	1.579669966352658	0.9290939276272104	-0.391157720974859	1.436316598398823	0.5328699487364369	-0.4048530750911364	1.565168103915777	1.138413205480564	-0.1745680324019459	1.245042490360261	0.08564506707688552	-0.4199180505071891	1.644554421539746	1.458528695669772	-0.2882394383748225	1.638133234851837	1.495074863786318	-0.6629640351563929	1.688378333818549	1.444154510170506	-0.6876934888017604	1.582741677670023	1.472527884697939	-0.6873123234790022	1.511184879489947	1.141678866674552	-0.7291008681321796	1.487525689454661	1.143301700218188	-0.6563086122723463	1.609222261381429	1.396498655023741	-0.725512520605968	1.615669714396773	1.32371276366711	-0.7121449202762904	1.521997370367634	1.306476275297692	-0.7007950901546653	1.550405064672305	1.055805261065508	-0.6714388744043804	1.589305322562805	0.868997879879738	-0.7156683792886623	1.52264538678456	0.8661562515221819	-0.7457488678131643	1.680597999992179	1.025854502971979	-0.5997998905071765	1.487207994036472	1.060962820001252	-0.5326928888667636	1.876842620567098	0.05973363746800488	-0.5466343751282768	2.103557810111148	0.1145609865268862	-0.5278583337530985	2.047820065158263	0.06864533419193108	-0.6171457646155484	1.657255457276318	0.8230073306797879	-0.6468851759763914	1.755041288223173	0.7327025559910625	-0.6277126432051297	1.732496121039232	0.6032508310919791	-0.6098713387628349	1.877690738768175	0.4121758416058421	-0.5522589319076174	1.880626366029936	0.3237976875560952	-0.6094896339794987	1.935498168902128	0.2199042120330313	-0.5497175518945472	1.773414278163234	0.536834015886914	-0.6085774204518921	1.778773714003439	0.5392521532875014	-0.4926562386643232	1.942275688384014	0.09485489911843731	-0.6071056978804049	1.957585916523021	0.1013557242819748	-0.5037028568013913	1.598912340384417	0.9205673078582063	-0.5504046372350293	1.777347099744179	0.538398265260839	-0.549004476372398	1.506006569432194	1.135536956719142	-0.6951671084578529	1.943410451115893	0.08097194164054955	-0.5463673461036379	1.642558434214126	1.45646146137178	-0.6875281583430141	
121	3.68	1.703077994143165	1.447227553640109	-0.4576144919421326	1.580465912542759	1.541369166318859	-0.487506263557325	1.646442851655936	1.499185566980503	-0.316563910368849	1.697011415286558	1.445831177500134	-0.2890831257811269	1.599181305905351	1.472035031281885	-0.2887935705089369	1.579172864799499	1.154342092457889	-0.1436081855247874	1.554042774425988	1.138057272944475	-0.2116219857047926	1.642934762015964	1.391614213027599	-0.2321473156863704	1.649944058366909	1.297920837649875	-0.231454899802409	1.586874606062994	1.284738232205156	-0.1909307052977608	1.668029669501543	1.103151968324665	-0.1890365051676604	1.817529150621968	1.005959143788506	-0.155321406162275	1.772633540360862	0.9727690044145856	-0.1058643675865358	1.653675426366817	1.038538789592429	-0.3403317369824872	1.483552237273797	1.059263560248839	-0.4514417699206896	1.178473263008482	0.105252166318916	-0.424488950450066	1.399460373901138	0.02883432678317195	-0.4342681303999757	1.324757614466002	0.01745378733748371	-0.3451937300778868	1.562689185476789	0.8638246002268408	-0.2914422702297333	1.56581906377377	0.7451107398736231	-0.3034786619832615	1.453569714074	0.6730499110093291	-0.3351496223735081	1.412431267613943	0.3651621959106456	-0.4112880830264972	1.3671971551752	0.311990050610605	-0.3435485671733233	1.345785081765947	0.2139905151026366	-0.4113353152368203	1.438082936848865	0.5320680189604132	-0.3455566506987312	1.442504536700732	0.5338552886125549	-0.4615288303366964	1.254896478874641	0.09621874709437944	-0.3588515268308786	1.270152256758331	0.0933140106134604	-0.4624258243367125	1.586447577541221	0.9282099069401177	-0.391879175921197	1.441208162081744	0.5326311320383359	-0.4051126974650798	1.571977570395994	1.137820025910425	-0.1756316652567413	1.245958758427269	0.08711636645616705	-0.4198468987149038	1.651182900546931	1.458106372804195	-0.2889474836138696	1.644887777309556	1.494307327655426	-0.6637077266585122	1.695178287594318	1.443399500939696	-0.6883705735037581	1.589521769462614	1.471699663023987	-0.6880578538097929	1.518071393791043	1.140828933056234	-0.7296295638108556	1.494407446719891	1.142487753883946	-0.6568396654905883	1.616033498153607	1.395679665818924	-0.7261858536593184	1.622501605382691	1.322903578516889	-0.712774922468018	1.528833675570345	1.305646195649043	-0.7014204135735629	1.557302320396044	1.054993482150151	-0.6719182262380591	1.596221740910928	0.8681635163250192	-0.7160353363916856	1.529561126804027	0.8652962269425577	-0.746111886360773	1.68772274491616	1.025399926975328	-0.6001532076709011	1.494235505902835	1.060405052495728	-0.5332729600364603	1.880885648191155	0.05880938918180472	-0.5451995945313765	2.108106972954153	0.1115669823340052	-0.5266130122130361	2.051933943930609	0.06588484762477043	-0.6157473043262376	1.664065759227918	0.8221839276864703	-0.64744036949226	1.761957906165479	0.7319983131058576	-0.6282494974671133	1.739538687197606	0.602592399812692	-0.6099237229259175	1.884171657508255	0.4110443698436527	-0.5518823140281761	1.88647109226062	0.3224715030293521	-0.6088404490434398	1.940676861914351	0.2183942165599983	-0.5487811135417947	1.780499134942028	0.5362037004158993	-0.6085289247388961	1.786183257486902	0.5390022422369003	-0.4926317710093461	1.94656956753042	0.09312468649205913	-0.605785372922244	1.961991063369208	0.09984187258130311	-0.5024128996335401	1.605937290900025	0.9200238588957689	-0.5511138839218218	1.784687565830996	0.5379533504343232	-0.5489559245568869	1.512892897935948	1.134705524605334	-0.6956924889779863	1.947649951168106	0.07942256229698741	-0.5450049802360574	1.649349772854691	1.455674696243757	-0.6882349313365007	
